<?xml version="1.0" encoding="UTF-8" standalone="no"?><!DOCTYPE svg PUBLIC "-//W3C//DTD SVG 1.1//EN" "http://www.w3.org/Graphics/SVG/1.1/DTD/svg11.dtd"><svg width="100%" height="100%" viewBox="0 0 347 347" version="1.1" xmlns="http://www.w3.org/2000/svg" xmlns:xlink="http://www.w3.org/1999/xlink" xml:space="preserve" xmlns:serif="http://www.serif.com/" style="fill-rule:evenodd;clip-rule:evenodd;stroke-linejoin:round;stroke-miterlimit:2;"><g><path d="M310.298,106.14c1.902,-5.753 11.064,-6.037 12.552,-12.377c1.028,-3.371 6.516,-2.83 5.903,1.13c-0.613,3.959 -2.472,6.152 -4.899,8.745c-2.428,2.593 -6.145,6.978 -10.234,7.215c-2.536,0.024 -4.197,-2.333 -3.322,-4.713Z" style="fill:#fff;fill-rule:nonzero;"/><path d="M269.166,139.548c2.012,-3.183 5.27,-4.598 8.528,-6.013c3.411,-2.405 6.669,-3.82 10.08,-6.225c2.843,-2.004 5.75,2.12 2.907,4.124c-2.996,2.993 -5.839,4.997 -9.25,7.402c-2.843,2.004 -5.839,4.998 -8.528,6.013c-3.104,0.426 -5.181,-2.52 -3.737,-5.301Z" style="fill:#fff;fill-rule:nonzero;"/><path d="M222.743,167.866c6.56,-6.39 15.722,-6.674 23.528,-11.296c2.274,-1.603 4.766,1.932 2.492,3.535c-2.843,2.004 -6.669,3.82 -9.512,5.824c-4.394,2.217 -8.374,5.023 -13.185,6.65c-2.274,1.603 -5.181,-2.521 -3.323,-4.713Z" style="fill:#fff;fill-rule:nonzero;"/><path d="M175.209,183.739c3.673,-0.825 7.456,0.918 10.976,1.082c3.52,0.164 6.625,-0.261 9.883,-1.676c2.689,-1.014 3.629,2.733 1.923,3.935c-2.427,2.593 -6.101,3.419 -9.774,4.245c-4.089,0.237 -10.145,0.097 -13.359,-2.047c-2.799,-1.554 -2.755,-5.113 0.351,-5.539Z" style="fill:#fff;fill-rule:nonzero;"/><path d="M114.976,167.116c4.088,-0.237 6.734,2.308 9.947,4.452c4.613,2.921 9.948,4.452 14.714,6.383c2.952,0.565 2.755,5.113 -0.766,4.95c-4.92,-0.941 -9.839,-1.883 -14.189,-3.226c-3.783,-1.743 -10.101,-3.462 -12.025,-7.397c-0.678,-2.168 -0.217,-5.138 2.319,-5.162Z" style="fill:#fff;fill-rule:nonzero;"/><path d="M80.96,138.182c-1.094,-2.756 2.887,-5.563 4.548,-3.206c5.706,5.678 8.153,12.772 15.149,16.659c1.815,1.366 0.371,4.148 -2.013,3.183c-6.579,-3.299 -13.837,-8.765 -17.684,-16.636Z" style="fill:#fff;fill-rule:nonzero;"/><path d="M59.52,83.626c-0.787,-4.737 6.408,-5.399 7.193,-0.662c1.465,6.905 1.792,14.612 4.807,21.305c1.661,2.357 -1.75,4.762 -3.411,2.405c-5.138,-6.078 -7.847,-14.752 -8.589,-23.048Z" style="fill:#fff;fill-rule:nonzero;"/><path d="M72.249,57.014c-0.786,-4.737 -0.589,-9.286 1.576,-13.458c1.597,-3.772 5.053,-9.736 9.972,-8.794c1.968,0.376 3.213,2.144 2.492,3.534c-0.46,2.97 -4.286,4.786 -6.145,6.978c-2.581,3.584 -3.194,7.543 -2.823,11.691c0.939,3.748 -4.132,3.796 -5.072,0.049Z" style="fill:#fff;fill-rule:nonzero;"/><path d="M109.162,11.588c3.411,-2.405 7.806,-4.622 12.048,-5.849c2.121,-0.613 4.919,0.942 4.46,3.912c-0.307,1.98 -3.718,4.384 -5.839,4.998c-1.137,0.801 -2.536,0.024 -3.367,-1.154c-1.552,0.212 -3.258,1.415 -4.395,2.216c-2.842,2.005 -5.75,-2.119 -2.907,-4.123Z" style="fill:#fff;fill-rule:nonzero;"/><path d="M156.52,9.949c4.548,-3.207 9.359,-4.834 14.278,-3.893c2.952,0.565 5.335,1.531 7.149,2.897c2.799,1.555 6.581,3.298 8.242,5.655c1.661,2.356 -0.088,7.118 -3.455,5.964c-3.936,-0.754 -7.827,-5.066 -11.609,-6.809c-4.198,-2.332 -7.871,-1.506 -11.698,0.31c-2.274,1.603 -5.333,-1.531 -2.907,-4.124Z" style="fill:#fff;fill-rule:nonzero;"/><path d="M200.33,44.324c6.888,1.318 11.041,7.209 15.347,12.111c0.831,1.178 1.093,2.757 0.371,4.148c-0.721,1.39 -1.29,1.791 -2.842,2.004c-1.553,0.212 -2.952,-0.565 -3.783,-1.743c-2.338,-4.525 -5.508,-10.228 -10.842,-11.758c-1.815,-1.367 -1.202,-5.327 1.749,-4.762Z" style="fill:#fff;fill-rule:nonzero;"/><path d="M227.827,99.02c-1.509,-3.347 -3.016,-6.693 -4.524,-10.039c-1.246,-1.767 1.596,-3.771 2.842,-2.004c3.061,3.134 6.121,6.268 8.045,10.203c2.076,2.946 3.847,7.871 0.851,10.865c-1.706,1.203 -3.827,1.816 -5.073,0.049c-1.506,-3.347 -1.047,-6.316 -2.141,-9.074Z" style="fill:#fff;fill-rule:nonzero;"/><path d="M231.142,149.598c1.641,-7.33 5.818,-14.685 2.387,-21.967c-1.246,-1.767 1.597,-3.771 2.843,-2.004c4.983,7.069 4.544,19.726 -0.464,25.902c-1.859,2.193 -5.225,1.038 -4.766,-1.931Z" style="fill:#fff;fill-rule:nonzero;"/><path d="M211.389,208.501c2.625,-7.142 7.786,-14.308 11.395,-21.262c1.443,-2.782 5.226,-1.038 3.782,1.743c-3.193,7.543 -5.971,15.675 -11.132,22.842c-0.875,2.38 -5.488,-0.541 -4.045,-3.323Z" style="fill:#fff;fill-rule:nonzero;"/><path d="M161.928,243.372c5.161,-7.166 15.919,-11.223 24.665,-12.097c3.105,-0.424 3.891,4.312 1.202,5.325c-8.899,1.865 -14.475,8.442 -22.544,11.484c-2.537,0.025 -4.613,-2.92 -3.323,-4.712Z" style="fill:#fff;fill-rule:nonzero;"/><path d="M107.283,275.723c3.259,-1.415 6.932,-2.24 10.758,-4.056c3.259,-1.416 6.516,-2.83 9.775,-4.246c2.121,-0.613 3.783,1.744 2.492,3.535c-5.992,5.989 -12.967,11.788 -21.975,11.083c-4.089,0.237 -3.738,-5.302 -1.05,-6.316Z" style="fill:#fff;fill-rule:nonzero;"/><path d="M63.354,307.576c2.274,-1.604 5.379,-2.029 8.068,-3.043c3.827,-1.816 6.407,-5.399 8.419,-8.581c2.012,-3.182 7.041,0.328 5.029,3.51c-3.608,6.955 -12.182,16.527 -20.468,14.43c-2.383,-0.966 -4.306,-4.901 -1.048,-6.316Z" style="fill:#fff;fill-rule:nonzero;"/><path d="M17.96,332.523c2.515,-9.71 6.016,-19.232 8.947,-28.355c2.931,-9.122 5.338,-21.402 11.484,-28.381c2.997,-2.993 9.468,-2.264 10.101,3.463c0.327,7.707 -3.282,14.66 -5.907,21.802c-3.347,8.533 -6.277,17.656 -9.055,25.788c24.793,0.157 50.309,-1.075 75.059,2.643c4.919,0.941 4.678,9.049 -0.395,9.098c-27.746,-0.724 -55.797,0.533 -83.433,2.378c-3.523,-0.164 -7.983,-4.074 -6.801,-8.436Z" style="fill:#fff;fill-rule:nonzero;"/></g></svg>