<?xml version="1.0" encoding="UTF-8" standalone="no"?><!DOCTYPE svg PUBLIC "-//W3C//DTD SVG 1.1//EN" "http://www.w3.org/Graphics/SVG/1.1/DTD/svg11.dtd"><svg width="100%" height="100%" viewBox="0 0 355 355" version="1.1" xmlns="http://www.w3.org/2000/svg" xmlns:xlink="http://www.w3.org/1999/xlink" xml:space="preserve" xmlns:serif="http://www.serif.com/" style="fill-rule:evenodd;clip-rule:evenodd;stroke-linejoin:round;stroke-miterlimit:2;"><path id="Dice-monochrome-" serif:id="Dice monochrome " d="M354.331,72.731c-0,-40.141 -32.59,-72.731 -72.731,-72.731l-208.869,0c-40.141,0 -72.731,32.59 -72.731,72.731l-0,208.869c-0,40.141 32.59,72.731 72.731,72.731l208.869,-0c40.141,-0 72.731,-32.59 72.731,-72.731l-0,-208.869Zm-271.637,175.267c13.047,-0 23.639,10.592 23.639,23.639c0,13.046 -10.592,23.639 -23.639,23.639c-13.047,-0 -23.639,-10.593 -23.639,-23.639c0,-13.047 10.592,-23.639 23.639,-23.639Zm188.943,-188.943c13.046,0 23.639,10.592 23.639,23.639c-0,13.047 -10.593,23.639 -23.639,23.639c-13.047,0 -23.639,-10.592 -23.639,-23.639c-0,-13.047 10.592,-23.639 23.639,-23.639Z" style="fill:white;"/></svg>