<?xml version="1.0" standalone="no"?>
<!DOCTYPE svg PUBLIC "-//W3C//DTD SVG 20010904//EN"
 "http://www.w3.org/TR/2001/REC-SVG-20010904/DTD/svg10.dtd">
<svg version="1.0" xmlns="http://www.w3.org/2000/svg"
 width="1024.000000pt" height="1024.000000pt" viewBox="0 0 1024.000000 1024.000000"
 preserveAspectRatio="xMidYMid meet">
<metadata>
Created by potrace 1.14, written by Peter Selinger 2001-2017
</metadata>
<g transform="translate(0.000000,1024.000000) scale(0.100000,-0.100000)"
fill="#000000" stroke="none">
<path d="M0 5120 l0 -5120 5120 0 5120 0 0 5120 0 5120 -5120 0 -5120 0 0
-5120z m4818 2296 c66 -37 117 -92 148 -161 l25 -53 -3 -414 c-3 -407 -3 -414
-26 -459 -28 -58 -93 -123 -152 -152 -44 -22 -54 -22 -454 -25 -355 -2 -415
-1 -458 14 -69 22 -148 98 -182 173 l-27 60 3 413 c3 407 3 414 26 455 44 83
108 139 191 169 28 11 128 13 446 11 l410 -2 53 -29z m1560 0 c66 -37 117 -92
148 -161 l25 -53 -3 -414 c-3 -407 -3 -414 -26 -459 -28 -58 -93 -123 -152
-152 -44 -22 -54 -22 -454 -25 -355 -2 -415 -1 -458 14 -69 22 -148 98 -182
173 l-27 60 3 413 c3 407 3 414 26 455 44 83 108 139 191 169 28 11 128 13
446 11 l410 -2 53 -29z m-3586 -1973 c36 -22 53 -49 208 -331 68 -122 132
-227 142 -233 47 -25 59 -10 202 253 92 169 150 265 176 291 l39 37 279 0 279
0 24 -26 24 -26 3 -906 c2 -499 0 -931 -3 -959 -4 -29 -15 -63 -25 -75 -18
-23 -19 -23 -289 -23 -268 0 -271 0 -293 23 l-23 23 -5 514 -5 515 -79 -147
c-44 -82 -88 -160 -99 -176 -32 -48 -71 -61 -182 -61 -161 -1 -163 1 -296 246
l-74 138 -5 -515 -5 -514 -23 -23 c-22 -23 -28 -23 -269 -26 -264 -3 -292 1
-312 44 -8 18 -11 290 -11 975 l0 950 25 24 24 25 272 0 c240 0 274 -2 301
-17z m3228 7 c10 -5 23 -24 29 -41 14 -40 15 -388 1 -424 -20 -52 -43 -55
-475 -55 l-395 0 0 -104 0 -105 301 -3 301 -3 24 -28 c24 -28 24 -31 24 -222
0 -191 0 -194 -24 -222 l-24 -28 -301 -3 -301 -3 0 -120 0 -119 415 0 c398 0
416 -1 434 -19 29 -29 33 -65 29 -273 -3 -180 -4 -188 -26 -210 l-23 -23 -704
0 -704 0 -23 23 -23 23 -3 932 c-2 512 0 947 3 965 3 18 15 42 26 53 18 18 39
19 720 19 438 0 707 -4 719 -10z m935 4 c36 -14 45 -58 45 -209 0 -168 -2
-162 108 -315 l68 -95 54 0 c53 0 55 1 92 50 88 116 131 186 139 227 4 24 8
101 9 171 0 122 1 129 25 152 l24 25 263 0 c283 -1 288 -1 308 -54 13 -35 13
-279 0 -371 -15 -101 -51 -168 -197 -366 l-130 -176 129 -174 c71 -96 143
-200 159 -232 40 -78 51 -179 47 -412 -4 -252 27 -230 -318 -230 -245 0 -271
2 -287 18 -16 15 -19 44 -23 226 l-6 208 -33 54 c-18 30 -58 88 -89 129 l-57
75 -55 0 c-53 0 -55 -1 -92 -50 -83 -110 -130 -184 -139 -221 -4 -22 -9 -119
-9 -216 0 -164 -2 -180 -20 -198 -11 -11 -30 -22 -42 -25 -13 -3 -135 -5 -270
-3 -319 4 -292 -18 -296 233 -4 222 6 321 43 402 14 33 86 141 159 239 l133
178 -93 125 c-149 201 -204 283 -220 336 -18 55 -32 366 -20 429 4 21 16 46
27 57 18 18 35 19 283 19 145 0 272 -3 281 -6z"/>
<path d="M4304 6890 c-12 -4 -31 -21 -44 -37 -17 -22 -21 -36 -17 -68 11 -82
109 -115 168 -56 76 77 -7 202 -107 161z"/>
<path d="M6144 7174 c-92 -45 -58 -184 44 -184 103 0 138 126 50 180 -39 24
-53 24 -94 4z"/>
<path d="M5558 6592 c-62 -38 -57 -138 7 -169 71 -34 145 11 145 89 0 79 -84
123 -152 80z"/>
</g>
</svg>
